<svg xmlns="http://www.w3.org/2000/svg" viewBox="0 0 462.27 445.68"><defs><style>.cls-1{fill:#fff;}.cls-2{fill:#fdfefe;}</style></defs><title>Asset 1</title><g id="Layer_2" data-name="Layer 2"><g id="Layer_1-2" data-name="Layer 1"><g id="BASE"><path class="cls-1" d="M25.66,442.38A22.39,22.39,0,0,1,3.3,420V339.21a22.39,22.39,0,0,1,22.36-22.36H436.23A22.77,22.77,0,0,1,459,339.6v51.47a22.75,22.75,0,1,1-45.49,0L413,370.6c-2.14-16.46-45.58-28.86-101.22-28.86-56.24,0-97.09,12.65-97.13,30.09v17.76a24.23,24.23,0,1,1-48.45,0L165.84,361l0-.59a10.94,10.94,0,0,0-3.32-8c-3.44-3.48-9.47-5.64-15.72-5.64-5.8,0-10.87,1.79-13.91,4.9a11.65,11.65,0,0,0-3.23,8.75v42.68a23.07,23.07,0,0,1-46.14,0v-44c-.12-5.4-4.55-11.78-16.63-11.78-6.3,0-12.33,2.13-15.74,5.57A10.37,10.37,0,0,0,48,360.46V420A22.39,22.39,0,0,1,25.66,442.38Z"/><path class="cls-1" d="M436.23,320.15a19.45,19.45,0,0,1,19.45,19.45v.72h0v50.75a19.45,19.45,0,0,1-19.45,19.45h0a19.45,19.45,0,0,1-19.45-19.45l-.53-20.71c-2.43-21-53.81-31.92-104.52-31.92-50.52,0-100.37,10.85-100.43,33.38v17.77a20.93,20.93,0,0,1-20.93,20.93h0a20.93,20.93,0,0,1-20.93-20.93L169.14,361l0-.56c.11-11-11.28-17-22.34-17-10.51,0-20.71,5.41-20.45,17v42.6a19.77,19.77,0,0,1-19.77,19.77h0a19.77,19.77,0,0,1-19.77-19.77v-44C86.63,348.82,76.95,344,66.92,344c-10.94,0-22.29,5.75-22.2,16.5V420a19.06,19.06,0,0,1-19.06,19.06h0A19.06,19.06,0,0,1,6.6,420v-79.7h0v-1.11a19.06,19.06,0,0,1,19.06-19.06H436.23m0-6.6H25.66A25.69,25.69,0,0,0,0,339.21V420a25.66,25.66,0,0,0,51.32,0V360.43a7.09,7.09,0,0,1,2.2-5.26c2.81-2.83,7.94-4.59,13.4-4.59,1.34,0,13.09.24,13.33,8.57v43.94a26.37,26.37,0,1,0,52.74,0V360.34a8.36,8.36,0,0,1,2.29-6.37c2.39-2.45,6.71-3.91,11.55-3.91,5.4,0,10.53,1.79,13.37,4.66a7.65,7.65,0,0,1,2.36,5.54l0,.35,0,.25v.26l.32,28.51a27.53,27.53,0,0,0,55.05,0V371.82c0-7,9.69-13.85,26.55-18.81,17.47-5.14,41.36-8,67.28-8,25.45,0,50.46,2.86,68.61,7.85,17.4,4.78,28.32,11.49,29.32,18l.52,20.29a26,26,0,0,0,52.09-.09V339.6a26.07,26.07,0,0,0-26-26Z"/></g><path class="cls-1" d="M17.42,167.46A12.31,12.31,0,0,1,4.95,155V14.12a12,12,0,0,1,3.62-9,12.3,12.3,0,0,1,8.85-3.48H59A57,57,0,0,1,87.42,8.73,50.19,50.19,0,0,1,107,28.51a58.74,58.74,0,0,1,7,28.68,55.54,55.54,0,0,1-7,27.87A49.53,49.53,0,0,1,87.4,104.21,58.36,58.36,0,0,1,59,111.07H43.21a13.34,13.34,0,0,0-13.32,13.32V155a12.3,12.3,0,0,1-3.48,8.84A12,12,0,0,1,17.42,167.46ZM43.21,24.93A13.34,13.34,0,0,0,29.89,38.25V74.47A13.34,13.34,0,0,0,43.21,87.79H59c8.94,0,16.39-2.88,22.14-8.57s8.67-13.1,8.67-22c0-9.36-2.93-17.17-8.7-23.21S68,24.93,59,24.93Z"/><path class="cls-2" d="M59,3.3a55.13,55.13,0,0,1,27.57,6.87,48.35,48.35,0,0,1,18.94,19.14,56.85,56.85,0,0,1,6.76,27.88,53.66,53.66,0,0,1-6.76,27.05,47.69,47.69,0,0,1-18.94,18.52A56.48,56.48,0,0,1,59,109.42H43.21a15,15,0,0,0-15,15V155a10.66,10.66,0,0,1-3,7.7,10.37,10.37,0,0,1-7.8,3.12A10.66,10.66,0,0,1,6.6,155V14.12a10.37,10.37,0,0,1,3.12-7.8,10.66,10.66,0,0,1,7.7-3H59M43.21,89.44H59q14.15,0,23.3-9.05t9.16-23.2q0-14.77-9.16-24.35T59,23.28H43.21a15,15,0,0,0-15,15V74.47a15,15,0,0,0,15,15M59,0H17.42a13.9,13.9,0,0,0-10,3.94A13.6,13.6,0,0,0,3.3,14.12V155a14,14,0,0,0,14.12,14.12A13.6,13.6,0,0,0,27.6,165a13.9,13.9,0,0,0,3.95-10v-30.6a11.69,11.69,0,0,1,11.67-11.67H59a60,60,0,0,0,29.15-7.06,51.15,51.15,0,0,0,20.22-19.78,57.16,57.16,0,0,0,7.2-28.68,60.37,60.37,0,0,0-7.17-29.47A51.82,51.82,0,0,0,88.23,7.29,58.63,58.63,0,0,0,59,0ZM43.21,86.14A11.69,11.69,0,0,1,31.54,74.47V38.25A11.69,11.69,0,0,1,43.21,26.58H59c8.57,0,15.41,2.8,20.92,8.55s8.24,13,8.24,22.06C88.2,65.78,85.52,72.61,80,78s-12.38,8.1-21,8.1Z"/><path class="cls-1" d="M190.26,168.5a54.85,54.85,0,0,1-26.59-6.44,45.76,45.76,0,0,1-18.56-18.87c-4.41-8.18-6.65-18.14-6.65-29.6V62.39a12.26,12.26,0,1,1,24.52,0v51.19c0,10.72,2.87,18.89,8.54,24.3s13.39,8.18,22.89,8.18a34,34,0,0,0,15.19-3.37,26.71,26.71,0,0,0,10.6-9,22.18,22.18,0,0,0,3.78-12.6V62.39a11.85,11.85,0,0,1,3.52-8.89,12.22,12.22,0,0,1,21,8.89v92.8a12.13,12.13,0,0,1-3.38,8.74,12.84,12.84,0,0,1-17.65,0,11.7,11.7,0,0,1-3.43-7.35,48.65,48.65,0,0,1-13.62,8.13A54.32,54.32,0,0,1,190.26,168.5Z"/><path class="cls-2" d="M236.24,51.78a10,10,0,0,1,10.61,10.61v92.8a10.49,10.49,0,0,1-2.91,7.59,10.67,10.67,0,0,1-18.31-7.59v-2.29a46.24,46.24,0,0,1-15.81,10.3,52.43,52.43,0,0,1-19.56,3.64,53,53,0,0,1-25.8-6.24,43.94,43.94,0,0,1-17.89-18.21q-6.45-12-6.45-28.82V62.39a10.61,10.61,0,1,1,21.22,0v51.19q0,16.85,9.05,25.49t24,8.64a35.49,35.49,0,0,0,15.92-3.54,28.21,28.21,0,0,0,11.24-9.57,23.69,23.69,0,0,0,4.06-13.53V62.39a10.21,10.21,0,0,1,3-7.7,10.49,10.49,0,0,1,7.6-2.91m0-3.3a13.73,13.73,0,0,0-9.89,3.84,13.44,13.44,0,0,0-4,10.07v58.68a20.28,20.28,0,0,1-3.5,11.68,25.09,25.09,0,0,1-10,8.45,32.39,32.39,0,0,1-14.46,3.2c-9.19,0-16.31-2.53-21.76-7.72s-8-12.85-8-23.1V62.39a13.91,13.91,0,1,0-27.82,0v51.19c0,11.74,2.3,22,6.85,30.38a47.38,47.38,0,0,0,19.22,19.54A58.83,58.83,0,0,0,211,166.27,50.81,50.81,0,0,0,223,159.6a13.18,13.18,0,0,0,3.36,5.53,14.49,14.49,0,0,0,20,0,13.73,13.73,0,0,0,3.84-9.89V62.39a13.3,13.3,0,0,0-13.91-13.91Z"/><path class="cls-1" d="M311.36,167.46a29.73,29.73,0,0,1-17.05-5.18,33.61,33.61,0,0,1-11.71-14.42,50,50,0,0,1-4.1-20.54V13.7a12.06,12.06,0,1,1,24.11,0V127.31c0,4.82.9,8.81,2.69,11.86,1.64,2.81,3.62,4.18,6.07,4.18h5.2a10.27,10.27,0,0,1,8,3.46,12.48,12.48,0,0,1,3,8.59,10.54,10.54,0,0,1-4.62,8.82,18.43,18.43,0,0,1-11.18,3.24Z"/><path class="cls-2" d="M290.55,3.3A10,10,0,0,1,301,13.7V127.31q0,7.7,2.91,12.69t7.49,5h5.2a8.65,8.65,0,0,1,6.76,2.91,10.84,10.84,0,0,1,2.6,7.49,8.93,8.93,0,0,1-4,7.49,16.74,16.74,0,0,1-10.2,2.91h-.42a28,28,0,0,1-16.13-4.89,31.85,31.85,0,0,1-11.13-13.73,48.16,48.16,0,0,1-4-19.87V13.7a10,10,0,0,1,10.4-10.4m0-3.3a13.27,13.27,0,0,0-13.7,13.7V127.31a51.65,51.65,0,0,0,4.24,21.22,35.23,35.23,0,0,0,12.29,15.11,31.35,31.35,0,0,0,18,5.46h.42a20,20,0,0,0,12.15-3.56,12.26,12.26,0,0,0,5.29-10.15,14.08,14.08,0,0,0-3.44-9.69,12,12,0,0,0-9.23-4h-5.2c-1.15,0-2.89-.35-4.64-3.36-1.64-2.8-2.46-6.51-2.46-11V13.7A13.27,13.27,0,0,0,290.55,0Z"/><path class="cls-1" d="M394.59,168.5A54.85,54.85,0,0,1,368,162.05a45.74,45.74,0,0,1-18.56-18.87c-4.41-8.18-6.65-18.14-6.65-29.6V62.39a12.26,12.26,0,1,1,24.52,0v51.19c0,10.72,2.87,18.89,8.54,24.3s13.39,8.18,22.9,8.18a34,34,0,0,0,15.19-3.37,26.72,26.72,0,0,0,10.6-9,22.18,22.18,0,0,0,3.78-12.6V62.39a11.85,11.85,0,0,1,3.52-8.89,12.22,12.22,0,0,1,21,8.89v92.8a12.13,12.13,0,0,1-3.38,8.74,12.84,12.84,0,0,1-17.65,0,11.7,11.7,0,0,1-3.43-7.34,48.67,48.67,0,0,1-13.62,8.13A54.32,54.32,0,0,1,394.59,168.5Z"/><path class="cls-2" d="M440.57,51.78a10,10,0,0,1,10.61,10.61v92.8a10.49,10.49,0,0,1-2.91,7.59A10.67,10.67,0,0,1,430,155.2a1,1,0,0,0-1-1,1,1,0,0,0-.66.26,46.55,46.55,0,0,1-14.17,8.74,52.43,52.43,0,0,1-19.56,3.64,53,53,0,0,1-25.8-6.24,43.94,43.94,0,0,1-17.89-18.21q-6.45-12-6.45-28.82V62.39a10.61,10.61,0,1,1,21.22,0v51.19q0,16.85,9.05,25.49t24,8.64a35.49,35.49,0,0,0,15.92-3.54,28.21,28.21,0,0,0,11.24-9.57A23.69,23.69,0,0,0,430,121.07V62.39a10.21,10.21,0,0,1,3-7.7,10.49,10.49,0,0,1,7.6-2.91m0-3.3a13.73,13.73,0,0,0-9.89,3.84,13.44,13.44,0,0,0-4,10.07v58.68a20.28,20.28,0,0,1-3.5,11.68,25.09,25.09,0,0,1-10,8.45,32.39,32.39,0,0,1-14.46,3.2c-9.19,0-16.31-2.53-21.76-7.72s-8-12.85-8-23.1V62.39a13.91,13.91,0,1,0-27.82,0v51.19c0,11.74,2.3,22,6.85,30.38A47.38,47.38,0,0,0,367.2,163.5a58.83,58.83,0,0,0,48.16,2.77,50.86,50.86,0,0,0,11.92-6.67,13.18,13.18,0,0,0,3.36,5.53,14.49,14.49,0,0,0,20,0,13.73,13.73,0,0,0,3.84-9.89V62.39a13.3,13.3,0,0,0-13.91-13.91Z"/><path class="cls-1" d="M53.84,291.8a45.45,45.45,0,0,1-23.7-6.43,46.38,46.38,0,0,1-16.9-17.56A49.93,49.93,0,0,1,7.07,243.3,49.36,49.36,0,0,1,13.24,219a46.94,46.94,0,0,1,16.89-17.55,45.17,45.17,0,0,1,23.71-6.49,47.23,47.23,0,0,1,15.93,2.44,48,48,0,0,1,13.62,8,7.4,7.4,0,0,1,2.46,2.95,8.8,8.8,0,0,1,.63,3.41A7,7,0,0,1,84.11,217a7.66,7.66,0,0,1-5.26,2,8.32,8.32,0,0,1-5.36-2,32,32,0,0,0-8.72-5.53,30.27,30.27,0,0,0-10.93-1.65,28.82,28.82,0,0,0-15.52,4.43A32.45,32.45,0,0,0,27,226.51a35.72,35.72,0,0,0,0,33.63,32.55,32.55,0,0,0,11.33,12.1,28.8,28.8,0,0,0,15.52,4.43c6.92,0,13.67-2.43,20.07-7.23a8.74,8.74,0,0,1,5.06-1.8,6.86,6.86,0,0,1,5.16,2.22,8.25,8.25,0,0,1-.46,11.26l-.08.08-.09.07A46.22,46.22,0,0,1,53.84,291.8Z"/><path class="cls-1" d="M53.84,197a45,45,0,0,1,15.23,2.32,45.72,45.72,0,0,1,13,7.64,5.48,5.48,0,0,1,1.85,2.14,6.72,6.72,0,0,1,.46,2.61,4.91,4.91,0,0,1-1.68,3.82A5.64,5.64,0,0,1,78.85,217a6.28,6.28,0,0,1-4.05-1.51,33.74,33.74,0,0,0-9.26-5.85,32.11,32.11,0,0,0-11.7-1.8,30.71,30.71,0,0,0-16.62,4.75,34.33,34.33,0,0,0-12,12.91,37.78,37.78,0,0,0,0,35.61,34.43,34.43,0,0,0,12,12.85,30.7,30.7,0,0,0,16.62,4.75q11.12,0,21.31-7.64A6.65,6.65,0,0,1,79,269.7a4.76,4.76,0,0,1,3.65,1.56,5.82,5.82,0,0,1,1.45,4.11,5.89,5.89,0,0,1-1.85,4.28,44,44,0,0,1-28.37,10.08A43.22,43.22,0,0,1,31.2,283.6,44.13,44.13,0,0,1,15,266.81,47.67,47.67,0,0,1,9.14,243.3,47.12,47.12,0,0,1,15,220,44.7,44.7,0,0,1,31.2,203.17,42.93,42.93,0,0,1,53.84,197m0-4.12a47.2,47.2,0,0,0-24.77,6.79A49,49,0,0,0,11.44,218,51.41,51.41,0,0,0,5,243.3a52,52,0,0,0,6.42,25.51,48.41,48.41,0,0,0,17.64,18.33,47.48,47.48,0,0,0,24.76,6.72,48.24,48.24,0,0,0,31-11l.17-.14.16-.16a10.31,10.31,0,0,0,.52-14.11A8.88,8.88,0,0,0,79,265.58a10.69,10.69,0,0,0-6.2,2.15l0,0,0,0c-6.12,4.59-12.28,6.82-18.83,6.82a26.41,26.41,0,0,1-14.43-4.12,30.51,30.51,0,0,1-10.62-11.35,33.66,33.66,0,0,1,0-31.65,30.41,30.41,0,0,1,10.61-11.39A26.43,26.43,0,0,1,53.84,212,28.31,28.31,0,0,1,64,213.49a29.84,29.84,0,0,1,8.11,5.15l0,0,0,0a10.33,10.33,0,0,0,6.66,2.43,9.8,9.8,0,0,0,6.63-2.56,9,9,0,0,0,3-6.89,10.83,10.83,0,0,0-.78-4.2,9.47,9.47,0,0,0-3.12-3.8,50,50,0,0,0-14.17-8.27,49.26,49.26,0,0,0-16.63-2.56Z"/><path class="cls-1" d="M181.11,290.64a8.14,8.14,0,0,1-4.4-1.3,7.63,7.63,0,0,1-3.07-3.7l-4.39-11a6.24,6.24,0,0,0-5.82-3.94H133.1a6.24,6.24,0,0,0-5.8,3.9l-4.53,11.12a8.47,8.47,0,0,1-3.06,3.58,7.86,7.86,0,0,1-4.37,1.32,7.55,7.55,0,0,1-5.73-2.45,8,8,0,0,1-2.23-5.63,9.47,9.47,0,0,1,.72-3.41l32.56-77.76c1.89-4.4,5.16-5.32,7.58-5.32a7.63,7.63,0,0,1,7.61,5.4l32.63,77.86a9.39,9.39,0,0,1,.74,3.34,7.7,7.7,0,0,1-2.34,5.63A7.83,7.83,0,0,1,181.11,290.64Zm-32.74-57.29a6.18,6.18,0,0,0-5.8,3.89L138.17,248a6.27,6.27,0,0,0,5.8,8.64h8.73a6.27,6.27,0,0,0,5.81-8.6l-4.32-10.75A6.17,6.17,0,0,0,148.37,233.35Z"/><path class="cls-1" d="M148.22,198.13a5.62,5.62,0,0,1,5.67,4.05l32.66,77.94a7.38,7.38,0,0,1,.58,2.55,5.68,5.68,0,0,1-1.74,4.17,5.82,5.82,0,0,1-4.28,1.74,6.09,6.09,0,0,1-3.3-1,5.58,5.58,0,0,1-2.26-2.72l-4.39-11a8.33,8.33,0,0,0-7.73-5.24H133.1a8.33,8.33,0,0,0-7.71,5.19l-4.49,11a6.41,6.41,0,0,1-2.32,2.72,5.81,5.81,0,0,1-3.24,1,5.54,5.54,0,0,1-4.23-1.79,6,6,0,0,1-1.68-4.23,7.54,7.54,0,0,1,.58-2.66l32.54-77.71q1.74-4.05,5.67-4.05M144,258.7h8.73a8.33,8.33,0,0,0,7.73-11.43l-4.32-10.75a8.33,8.33,0,0,0-15.43-.06l-4.41,10.75A8.33,8.33,0,0,0,144,258.7M148.22,194c-4.29,0-7.65,2.33-9.47,6.55L106.2,278.3l0,.05,0,.05a11.47,11.47,0,0,0-.86,4.15,10.14,10.14,0,0,0,2.79,7,9.66,9.66,0,0,0,7.24,3.1,9.89,9.89,0,0,0,5.5-1.66,10.49,10.49,0,0,0,3.79-4.43l0-.09,0-.1,4.49-11a4.19,4.19,0,0,1,3.89-2.62h30.33a4.18,4.18,0,0,1,3.9,2.64l4.39,11a9.65,9.65,0,0,0,3.89,4.68,10.17,10.17,0,0,0,5.5,1.62,10,10,0,0,0,7.2-2.95,9.82,9.82,0,0,0,2.94-7.08,11.27,11.27,0,0,0-.85-4l0-.06,0-.06-32.63-77.87a9.66,9.66,0,0,0-9.51-6.66ZM144,254.58a4.2,4.2,0,0,1-3.89-5.8L144.49,238a4.2,4.2,0,0,1,7.79,0l4.32,10.75a4.2,4.2,0,0,1-3.9,5.77Z"/><path class="cls-1" d="M267.88,290.64a7.74,7.74,0,0,1-6.68-3.45L237.1,254.53a5.42,5.42,0,0,0-9.78,3.21v24.81a8.08,8.08,0,0,1-13.75,5.77,7.74,7.74,0,0,1-2.42-5.77v-78.4a7.74,7.74,0,0,1,2.42-5.77,8.06,8.06,0,0,1,13.75,5.77v16.69a5.4,5.4,0,0,0,5.47,5.43,5.25,5.25,0,0,0,3.78-1.6l25.56-25.56a11.38,11.38,0,0,1,3.07-2.32,7.8,7.8,0,0,1,3.37-.72,6.85,6.85,0,0,1,5.28,2.11,7.06,7.06,0,0,1,1.88,4.93,9.14,9.14,0,0,1-2.8,6.67l-25,25.1a5.39,5.39,0,0,0-.53,7l26.32,35.83a8.49,8.49,0,0,1-.43,10.36A6.86,6.86,0,0,1,267.88,290.64Z"/><path class="cls-1" d="M268.57,198.13a4.86,4.86,0,0,1,3.76,1.45,5,5,0,0,1,1.33,3.53,7.12,7.12,0,0,1-2.2,5.21l-25,25.11a7.48,7.48,0,0,0-.73,9.71L272,279a6.43,6.43,0,0,1-.35,7.82,4.77,4.77,0,0,1-3.82,1.79,5.66,5.66,0,0,1-5-2.55L238.76,253.3a7.48,7.48,0,0,0-13.5,4.44v24.81a5.93,5.93,0,0,1-6,6,5.88,5.88,0,0,1-4.23-1.74,5.72,5.72,0,0,1-1.79-4.28v-78.4a5.73,5.73,0,0,1,1.79-4.29,6,6,0,0,1,10.25,4.29v16.69a7.47,7.47,0,0,0,7.53,7.49,7.32,7.32,0,0,0,5.23-2.21l25.56-25.56a9.5,9.5,0,0,1,2.49-1.91,5.73,5.73,0,0,1,2.49-.52m0-4.12a9.84,9.84,0,0,0-4.26.92,13.33,13.33,0,0,0-3.64,2.72l-25.56,25.56a3.19,3.19,0,0,1-2.32,1,3.37,3.37,0,0,1-3.41-3.37V204.16a10.14,10.14,0,0,0-17.24-7.25,9.86,9.86,0,0,0-3.05,7.25v78.4a9.86,9.86,0,0,0,3.05,7.25,10.12,10.12,0,0,0,17.24-7.25V257.74a3.35,3.35,0,0,1,6.05-2l24.1,32.67a9.72,9.72,0,0,0,8.34,4.28,8.86,8.86,0,0,0,7-3.27,10.56,10.56,0,0,0,.55-12.86l0,0,0,0-26.32-35.83a3.34,3.34,0,0,1,.33-4.35l25-25.11a11.28,11.28,0,0,0,3.4-8.12,9.18,9.18,0,0,0-2.42-6.32,8.89,8.89,0,0,0-6.8-2.78Z"/><path class="cls-1" d="M305.68,290.64a8,8,0,0,1-8.08-8.08v-78.4a7.79,7.79,0,0,1,2.36-5.83,8,8,0,0,1,5.72-2.26H358a7.93,7.93,0,0,1,5.72,2.14,7.46,7.46,0,0,1,2.25,5.6,7.23,7.23,0,0,1-2.28,5.45,8.07,8.07,0,0,1-5.69,2.06H325.77a12,12,0,0,0,0,24h19.17a8,8,0,0,1,5.63,2.12,7.65,7.65,0,0,1,0,11,8,8,0,0,1-5.63,2.12H325.77a12,12,0,0,0-12,12v.81a12,12,0,0,0,12,12H358a8.07,8.07,0,0,1,5.69,2.06A7.23,7.23,0,0,1,366,282.9a7.47,7.47,0,0,1-2.25,5.59,7.94,7.94,0,0,1-5.72,2.14Z"/><path class="cls-1" d="M358,198.13a5.92,5.92,0,0,1,4.29,1.56,5.45,5.45,0,0,1,1.62,4.11,5.12,5.12,0,0,1-1.62,3.94,6,6,0,0,1-4.29,1.51H325.77a14.07,14.07,0,0,0-14.07,14.07h0a14.07,14.07,0,0,0,14.07,14.07h19.17a6,6,0,0,1,4.23,1.56,5.59,5.59,0,0,1,0,8,6,6,0,0,1-4.23,1.56H325.77a14.07,14.07,0,0,0-14.07,14.07v.81a14.07,14.07,0,0,0,14.07,14.07H358a6.06,6.06,0,0,1,4.29,1.51,5.13,5.13,0,0,1,1.62,3.94,5.45,5.45,0,0,1-1.62,4.11,5.92,5.92,0,0,1-4.29,1.56H305.68a5.93,5.93,0,0,1-6-6v-78.4a5.78,5.78,0,0,1,1.74-4.34,5.93,5.93,0,0,1,4.29-1.68H358m0-4.12H305.68a10.09,10.09,0,0,0-7.15,2.84,9.91,9.91,0,0,0-3,7.31v78.4a10.06,10.06,0,0,0,10.15,10.15H358a10.06,10.06,0,0,0,7.15-2.72,9.58,9.58,0,0,0,2.89-7.08,9.24,9.24,0,0,0-2.94-7,10.21,10.21,0,0,0-7.09-2.61H325.77a10,10,0,0,1-9.95-9.95v-.81a10,10,0,0,1,9.95-9.95h19.17a10.12,10.12,0,0,0,7-2.67,9.71,9.71,0,0,0,0-14,10.12,10.12,0,0,0-7-2.67H325.77a9.95,9.95,0,0,1,0-19.89H358a10.2,10.2,0,0,0,7.09-2.61,9.23,9.23,0,0,0,2.94-7,9.57,9.57,0,0,0-2.88-7.08A10.06,10.06,0,0,0,358,194Z"/><path class="cls-1" d="M418.64,291.8a43.72,43.72,0,0,1-21.44-5.35c-6.52-3.61-11.09-8.43-13.58-14.32a8.18,8.18,0,0,1-.74-3.12,6.32,6.32,0,0,1,1.85-4.49,8.53,8.53,0,0,1,4.45-2.37,6.23,6.23,0,0,1,1.67-.18,8.4,8.4,0,0,1,4.66,1.44,8.72,8.72,0,0,1,3.25,3.85c1.17,2.53,3.62,4.77,7.27,6.63a27.5,27.5,0,0,0,12.61,2.9,24.12,24.12,0,0,0,13.57-3.65,10.45,10.45,0,0,0,5.1-9.22,12.72,12.72,0,0,0-4.43-9.77c-3-2.8-7.87-4.55-14.33-5.2-10-1-17.93-4-23.71-8.88a24.17,24.17,0,0,1-8.95-19.11,22.2,22.2,0,0,1,4.67-14.07A28.55,28.55,0,0,1,403,198a47.81,47.81,0,0,1,17.25-3c7,0,13,1.46,17.84,4.34a36.82,36.82,0,0,1,12.27,12.25,9.92,9.92,0,0,1,1.71,5.27,7,7,0,0,1-3.2,5.86,7.59,7.59,0,0,1-4.19,1.18,8.44,8.44,0,0,1-4.28-1.15,8,8,0,0,1-3.1-3.18,20,20,0,0,0-7-7.13A21.51,21.51,0,0,0,419.45,210c-5.44,0-9.87,1-13.15,3.1a9,9,0,0,0-4.48,8.15,10.54,10.54,0,0,0,4.12,8.49c2.91,2.42,8.38,4.06,16.26,4.86,9.67,1,17.32,4,22.73,8.93s8.31,11.78,8.31,20a25.13,25.13,0,0,1-4.93,15.55,29.38,29.38,0,0,1-12.87,9.59A45.47,45.47,0,0,1,418.64,291.8Z"/><path class="cls-1" d="M420.26,197.09q10,0,16.79,4.05a34.62,34.62,0,0,1,11.58,11.58,7.87,7.87,0,0,1,1.39,4.17,4.9,4.9,0,0,1-2.32,4.17,5.49,5.49,0,0,1-3,.81,6.38,6.38,0,0,1-3.24-.87,5.94,5.94,0,0,1-2.32-2.37,22,22,0,0,0-7.82-7.93A23.4,23.4,0,0,0,419.45,208q-8.8,0-14.24,3.42a11,11,0,0,0-5.44,9.9,12.6,12.6,0,0,0,4.86,10.08q4.86,4.05,17.37,5.33,13.9,1.39,21.54,8.4t7.64,18.47a23,23,0,0,1-4.52,14.3,27.21,27.21,0,0,1-12,8.92,43.23,43.23,0,0,1-16,3,41.48,41.48,0,0,1-20.44-5.1q-9.21-5.09-12.68-13.32a6.27,6.27,0,0,1-.58-2.32,4.31,4.31,0,0,1,1.27-3.07,6.53,6.53,0,0,1,3.47-1.79,4.11,4.11,0,0,1,1.16-.12,6.35,6.35,0,0,1,3.53,1.1,6.66,6.66,0,0,1,2.49,3q2.08,4.52,8.22,7.64a29.41,29.41,0,0,0,13.55,3.13,26,26,0,0,0,14.71-4,12.48,12.48,0,0,0,6-10.94,14.81,14.81,0,0,0-5.09-11.29q-5.1-4.69-15.52-5.73-14.36-1.39-22.58-8.4A22.1,22.1,0,0,1,388,220.95a20.1,20.1,0,0,1,4.23-12.8,26.4,26.4,0,0,1,11.58-8.22,45.55,45.55,0,0,1,16.5-2.84m0-4.12a49.85,49.85,0,0,0-18,3.11,30.58,30.58,0,0,0-13.34,9.52,24.21,24.21,0,0,0-5.11,15.34,26.15,26.15,0,0,0,9.67,20.68c6.11,5.21,14.47,8.36,24.86,9.36,6,.6,10.41,2.17,13.12,4.66a10.76,10.76,0,0,1,3.76,8.26,8.42,8.42,0,0,1-4.18,7.51,22.11,22.11,0,0,1-12.43,3.31A25.46,25.46,0,0,1,407,272c-3.21-1.64-5.35-3.54-6.34-5.67a10.74,10.74,0,0,0-4-4.7,10.44,10.44,0,0,0-5.8-1.78,8.18,8.18,0,0,0-2.17.24,10.54,10.54,0,0,0-5.44,2.94,8.44,8.44,0,0,0-2.42,5.92,10.15,10.15,0,0,0,.9,3.91c2.68,6.34,7.55,11.5,14.49,15.34a45.75,45.75,0,0,0,22.44,5.61,47.53,47.53,0,0,0,17.56-3.24A31.4,31.4,0,0,0,450,280.36a27.14,27.14,0,0,0,5.35-16.79c0-8.81-3-16-9-21.51-5.75-5.27-13.79-8.45-23.92-9.46-9.29-.95-13.36-2.91-15.14-4.39a8.49,8.49,0,0,1-3.38-6.91,6.89,6.89,0,0,1,3.51-6.41c2.95-1.85,7-2.79,12.05-2.79a19.52,19.52,0,0,1,9.8,2.16,17.78,17.78,0,0,1,6.31,6.42,10,10,0,0,0,3.83,3.9,10.47,10.47,0,0,0,5.3,1.42,9.57,9.57,0,0,0,5.22-1.45l.08,0,.08-.05a9.06,9.06,0,0,0,4.08-7.55,11.93,11.93,0,0,0-2-6.37,38.85,38.85,0,0,0-13-12.93c-5.18-3.07-11.54-4.63-18.9-4.63Z"/></g></g></svg>