<svg xmlns="http://www.w3.org/2000/svg" viewBox="0 0 463.92 450.63"><defs><style>.cls-1{fill:#ef507e;}.cls-2{fill:#fbe2a2;}.cls-3{fill:#e13d5b;}</style></defs><title>Asset 9</title><g id="Layer_2" data-name="Layer 2"><g id="Logo"><g id="BASE"><path class="cls-1" d="M27.31,447.33A22.39,22.39,0,0,1,4.95,425V344.16A22.39,22.39,0,0,1,27.31,321.8H437.88a22.77,22.77,0,0,1,22.75,22.75V396a22.75,22.75,0,0,1-45.49,0l-.53-20.47c-2.14-16.46-45.57-28.86-101.22-28.86-56.24,0-97.09,12.65-97.13,30.09v17.76a24.23,24.23,0,0,1-48.45,0l-.32-28.63,0-.59a11,11,0,0,0-3.32-8c-3.44-3.48-9.47-5.64-15.72-5.64-5.8,0-10.87,1.79-13.91,4.9a11.65,11.65,0,0,0-3.23,8.75V408a23.07,23.07,0,1,1-46.14,0V364c-.12-5.4-4.54-11.79-16.63-11.79-6.3,0-12.33,2.13-15.74,5.57a10.37,10.37,0,0,0-3.16,7.61V425A22.39,22.39,0,0,1,27.31,447.33Z"/><path class="cls-2" d="M437.88,325.1a19.45,19.45,0,0,1,19.45,19.45v.72h0V396a19.45,19.45,0,0,1-38.89,0l-.53-20.71c-2.43-21-53.81-31.92-104.52-31.92-50.52,0-100.37,10.85-100.43,33.38v17.77A20.93,20.93,0,0,1,192,415.46h0a20.93,20.93,0,0,1-20.93-20.93L170.79,366l0-.56c.11-11-11.28-17-22.34-17-10.51,0-20.71,5.41-20.45,17V408a19.77,19.77,0,0,1-19.77,19.77h0A19.77,19.77,0,0,1,88.5,408V364c-.22-10.25-9.9-15.08-19.93-15.08-10.94,0-22.29,5.75-22.2,16.5V425A19.06,19.06,0,0,1,27.31,444h0A19.06,19.06,0,0,1,8.25,425v-79.7h0v-1.11A19.06,19.06,0,0,1,27.31,325.1H437.88m0-6.6H27.31A25.69,25.69,0,0,0,1.65,344.16V425A25.66,25.66,0,0,0,53,425V365.38a7.09,7.09,0,0,1,2.2-5.26c2.81-2.83,7.94-4.59,13.4-4.59,1.34,0,13.09.24,13.33,8.57V408a26.37,26.37,0,0,0,52.74,0V365.29a8.36,8.36,0,0,1,2.29-6.37c2.39-2.45,6.71-3.91,11.55-3.91,5.4,0,10.53,1.79,13.37,4.66a7.65,7.65,0,0,1,2.36,5.54l0,.35,0,.25v.25l.32,28.51a27.53,27.53,0,0,0,55.05,0V376.77c0-7,9.69-13.85,26.55-18.81,17.47-5.14,41.36-8,67.28-8,25.45,0,50.46,2.86,68.61,7.85,17.4,4.78,28.32,11.49,29.32,18l.52,20.29a26,26,0,0,0,52.09-.09V344.55a26.07,26.07,0,0,0-26-26Z"/></g><path class="cls-3" d="M19.07,174.88A14.79,14.79,0,0,1,4.12,159.94V19.07A14.4,14.4,0,0,1,8.5,8.3,14.7,14.7,0,0,1,19.07,4.12H60.69a59.45,59.45,0,0,1,29.6,7.4A52.63,52.63,0,0,1,110.8,32.27a61.17,61.17,0,0,1,7.28,29.87,58,58,0,0,1-7.3,29.09,52,52,0,0,1-20.54,20.09,60.81,60.81,0,0,1-29.55,7.17H47.07A13.07,13.07,0,0,0,34,131.55v28.39a14.7,14.7,0,0,1-4.17,10.56A14.4,14.4,0,0,1,19.07,174.88Zm28-142.53A13.07,13.07,0,0,0,34,45.41V77.21A13.07,13.07,0,0,0,47.07,90.27H60.69c8.38,0,15.05-2.57,20.4-7.86S89,70.5,89,62.14c0-8.83-2.62-15.86-8-21.5s-12-8.3-20.32-8.3Z"/><path class="cls-2" d="M60.69,8.25a55.13,55.13,0,0,1,27.57,6.87,48.35,48.35,0,0,1,18.94,19.14A56.85,56.85,0,0,1,114,62.14a53.66,53.66,0,0,1-6.76,27.05,47.69,47.69,0,0,1-18.94,18.52,56.48,56.48,0,0,1-27.57,6.66H47.07a17.18,17.18,0,0,0-17.18,17.18v28.39a10.66,10.66,0,0,1-3,7.7,10.37,10.37,0,0,1-7.8,3.12A10.66,10.66,0,0,1,8.25,159.94V19.07a10.37,10.37,0,0,1,3.12-7.8,10.66,10.66,0,0,1,7.7-3H60.69M47.07,94.39H60.69q14.15,0,23.3-9.05t9.16-23.2q0-14.77-9.16-24.35t-23.3-9.57H47.07A17.18,17.18,0,0,0,29.89,45.41V77.21A17.18,17.18,0,0,0,47.07,94.39M60.69,0H19.07A18.94,18.94,0,0,0,5.64,5.33,18.62,18.62,0,0,0,0,19.07V159.94A18.91,18.91,0,0,0,19.07,179a18.62,18.62,0,0,0,13.73-5.64,19,19,0,0,0,5.34-13.43V131.55a8.94,8.94,0,0,1,8.93-8.93H60.69a64.88,64.88,0,0,0,31.53-7.67,56,56,0,0,0,22.14-21.67,62,62,0,0,0,7.85-31.14,65.26,65.26,0,0,0-7.79-31.86A56.7,56.7,0,0,0,92.31,7.93,63.52,63.52,0,0,0,60.69,0ZM47.07,86.14a8.94,8.94,0,0,1-8.93-8.93V45.41a8.94,8.94,0,0,1,8.93-8.93H60.69c7.15,0,12.82,2.3,17.34,7S84.9,54.43,84.9,62.14c0,7.2-2.19,12.87-6.71,17.33s-10.27,6.67-17.5,6.67Z"/><path class="cls-1" d="M19.07,172.41A12.31,12.31,0,0,1,6.6,159.94V19.07a12,12,0,0,1,3.63-9A12.3,12.3,0,0,1,19.07,6.6H60.69a57,57,0,0,1,28.38,7.08,50.2,50.2,0,0,1,19.57,19.79,58.74,58.74,0,0,1,7,28.68,55.52,55.52,0,0,1-7,27.87A49.53,49.53,0,0,1,89,109.16,58.36,58.36,0,0,1,60.69,116H44.86a13.34,13.34,0,0,0-13.32,13.32v30.6a12.3,12.3,0,0,1-3.48,8.84A12,12,0,0,1,19.07,172.41ZM44.86,29.88A13.34,13.34,0,0,0,31.54,43.2V79.42A13.34,13.34,0,0,0,44.86,92.74H60.69c8.94,0,16.39-2.88,22.14-8.58s8.67-13.1,8.67-22c0-9.36-2.93-17.17-8.7-23.21s-13.2-9.06-22.11-9.06Z"/><path class="cls-1" d="M60.69,8.25a55.13,55.13,0,0,1,27.57,6.87,48.35,48.35,0,0,1,18.94,19.14A56.85,56.85,0,0,1,114,62.14a53.66,53.66,0,0,1-6.76,27.05,47.69,47.69,0,0,1-18.94,18.52,56.48,56.48,0,0,1-27.57,6.66H44.86a15,15,0,0,0-15,15v30.6a10.66,10.66,0,0,1-3,7.7,10.37,10.37,0,0,1-7.8,3.12A10.66,10.66,0,0,1,8.25,159.94V19.07a10.37,10.37,0,0,1,3.12-7.8,10.66,10.66,0,0,1,7.7-3H60.69M44.86,94.39H60.69q14.15,0,23.3-9.05t9.16-23.2q0-14.77-9.16-24.35t-23.3-9.57H44.86a15,15,0,0,0-15,15V79.42a15,15,0,0,0,15,15M60.69,4.95H19.07a13.9,13.9,0,0,0-10,3.94A13.6,13.6,0,0,0,4.95,19.07V159.94a14,14,0,0,0,14.12,14.12,13.6,13.6,0,0,0,10.18-4.13,13.9,13.9,0,0,0,3.95-10v-30.6a11.69,11.69,0,0,1,11.67-11.67H60.69a60,60,0,0,0,29.15-7.06,51.15,51.15,0,0,0,20.22-19.78,57.16,57.16,0,0,0,7.2-28.68,60.37,60.37,0,0,0-7.17-29.47,51.82,51.82,0,0,0-20.2-20.43A58.63,58.63,0,0,0,60.69,4.95ZM44.86,91.09A11.69,11.69,0,0,1,33.19,79.42V43.2A11.69,11.69,0,0,1,44.86,31.53H60.69c8.57,0,15.41,2.8,20.92,8.55s8.24,13,8.24,22.06c0,8.59-2.67,15.41-8.18,20.85s-12.38,8.1-21,8.1Z"/><path class="cls-3" d="M191.91,175.92a57.3,57.3,0,0,1-27.78-6.75,48.2,48.2,0,0,1-19.55-19.87c-4.61-8.54-6.94-18.9-6.94-30.78V67.34a14.74,14.74,0,1,1,29.47,0v51.19c0,10,2.62,17.59,7.77,22.5s12.22,7.5,21.19,7.5a31.58,31.58,0,0,0,14.09-3.11,23.94,23.94,0,0,0,9.64-8.17A19.47,19.47,0,0,0,223.15,126V67.34a14.23,14.23,0,0,1,4.28-10.66,14.69,14.69,0,0,1,25.2,10.66v92.8a14.53,14.53,0,0,1-4.07,10.46,14.88,14.88,0,0,1-24.36-4.73A51.85,51.85,0,0,1,213,172,56.78,56.78,0,0,1,191.91,175.92Z"/><path class="cls-2" d="M237.89,56.73A10,10,0,0,1,248.5,67.34v92.8a10.49,10.49,0,0,1-2.91,7.59,10.67,10.67,0,0,1-18.31-7.59v-2.29a46.23,46.23,0,0,1-15.81,10.3,52.43,52.43,0,0,1-19.56,3.64,53,53,0,0,1-25.8-6.24,43.94,43.94,0,0,1-17.89-18.21q-6.45-12-6.45-28.82V67.34a10.61,10.61,0,1,1,21.22,0v51.19Q163,135.39,172,144t24,8.64A35.49,35.49,0,0,0,212,149.12a28.21,28.21,0,0,0,11.24-9.57A23.69,23.69,0,0,0,227.28,126V67.34a10.21,10.21,0,0,1,3-7.7,10.49,10.49,0,0,1,7.59-2.91m0-8.25a18.77,18.77,0,0,0-13.33,5.23A18.45,18.45,0,0,0,219,67.34V126a15.48,15.48,0,0,1-2.65,8.92,19.94,19.94,0,0,1-8,6.78,27.12,27.12,0,0,1-12.27,2.69c-7.86,0-13.86-2.08-18.34-6.35s-6.5-10.55-6.5-19.52V67.34a18.86,18.86,0,1,0-37.72,0v51.19c0,12.57,2.5,23.58,7.44,32.73a52.25,52.25,0,0,0,21.21,21.53,63.77,63.77,0,0,0,52.36,3,56.93,56.93,0,0,0,8.32-4.11,18.81,18.81,0,0,0,1.64,1.86,19.43,19.43,0,0,0,27.06-.11,18.76,18.76,0,0,0,5.23-13.32V67.34a18.23,18.23,0,0,0-18.86-18.86Z"/><path class="cls-1" d="M191.91,173.45A54.85,54.85,0,0,1,165.31,167a45.76,45.76,0,0,1-18.56-18.87c-4.41-8.18-6.65-18.14-6.65-29.6V67.34a12.26,12.26,0,1,1,24.52,0v51.19c0,10.72,2.87,18.89,8.54,24.29S186.56,151,196.07,151a34,34,0,0,0,15.19-3.37,26.72,26.72,0,0,0,10.6-9,22.17,22.17,0,0,0,3.78-12.6V67.34a11.85,11.85,0,0,1,3.52-8.88,12.22,12.22,0,0,1,21,8.88v92.8a12.14,12.14,0,0,1-3.38,8.74,12.84,12.84,0,0,1-17.65,0,11.71,11.71,0,0,1-3.43-7.35,48.65,48.65,0,0,1-13.62,8.13A54.3,54.3,0,0,1,191.91,173.45Z"/><path class="cls-1" d="M237.89,56.73A10,10,0,0,1,248.5,67.34v92.8a10.49,10.49,0,0,1-2.91,7.59,10.67,10.67,0,0,1-18.31-7.59v-2.29a46.23,46.23,0,0,1-15.81,10.3,52.43,52.43,0,0,1-19.56,3.64,53,53,0,0,1-25.8-6.24,43.94,43.94,0,0,1-17.89-18.21q-6.45-12-6.45-28.82V67.34a10.61,10.61,0,1,1,21.22,0v51.19Q163,135.39,172,144t24,8.64A35.49,35.49,0,0,0,212,149.12a28.21,28.21,0,0,0,11.24-9.57A23.69,23.69,0,0,0,227.28,126V67.34a10.21,10.21,0,0,1,3-7.7,10.49,10.49,0,0,1,7.59-2.91m0-3.3A13.73,13.73,0,0,0,228,57.27a13.44,13.44,0,0,0-4,10.07V126a20.28,20.28,0,0,1-3.5,11.68,25.09,25.09,0,0,1-10,8.45,32.39,32.39,0,0,1-14.46,3.2c-9.19,0-16.31-2.53-21.76-7.72s-8-12.85-8-23.1V67.34a13.91,13.91,0,1,0-27.82,0v51.19c0,11.74,2.3,22,6.85,30.38a47.38,47.38,0,0,0,19.22,19.54,58.83,58.83,0,0,0,48.16,2.77,50.81,50.81,0,0,0,11.92-6.68,13.18,13.18,0,0,0,3.36,5.53,14.49,14.49,0,0,0,20,0,13.73,13.73,0,0,0,3.84-9.89V67.34a13.3,13.3,0,0,0-13.91-13.91Z"/><path class="cls-3" d="M313,174.88a32.16,32.16,0,0,1-18.45-5.61A36,36,0,0,1,282,153.82a52.46,52.46,0,0,1-4.31-21.55V18.65a14.53,14.53,0,1,1,29.06,0V132.26c0,4.37.79,7.94,2.35,10.61,1.72,2.95,3.27,2.95,3.93,2.95h5.2a12.82,12.82,0,0,1,9.84,4.29,14.89,14.89,0,0,1,3.65,10.24,13.05,13.05,0,0,1-5.63,10.81,20.82,20.82,0,0,1-12.64,3.72Z"/><path class="cls-2" d="M292.2,8.25a10,10,0,0,1,10.4,10.4V132.26q0,7.7,2.91,12.69t7.49,5h5.2a8.65,8.65,0,0,1,6.76,2.91,10.84,10.84,0,0,1,2.6,7.49,8.93,8.93,0,0,1-4,7.49,16.74,16.74,0,0,1-10.2,2.91H313a28,28,0,0,1-16.13-4.89,31.85,31.85,0,0,1-11.13-13.73,48.16,48.16,0,0,1-4-19.87V18.65a10,10,0,0,1,10.4-10.4m0-8.25a18.21,18.21,0,0,0-18.65,18.65V132.26a56.56,56.56,0,0,0,4.67,23.24,40.1,40.1,0,0,0,14,17.18A36.21,36.21,0,0,0,313,179h.42a24.84,24.84,0,0,0,15.09-4.52,17.25,17.25,0,0,0,7.31-14.13,19.14,19.14,0,0,0-4.69-13,16.85,16.85,0,0,0-12.92-5.67h-4.93a5.12,5.12,0,0,1-.64-.9c-1.19-2-1.79-4.91-1.79-8.54V18.65A18.21,18.21,0,0,0,292.2,0Z"/><path class="cls-1" d="M313,172.41A29.73,29.73,0,0,1,296,167.23a33.6,33.6,0,0,1-11.71-14.42,50,50,0,0,1-4.1-20.54V18.65a12.06,12.06,0,1,1,24.11,0V132.26c0,4.82.9,8.81,2.69,11.86,1.64,2.81,3.62,4.18,6.07,4.18h5.2a10.28,10.28,0,0,1,8,3.46,12.48,12.48,0,0,1,3,8.59,10.53,10.53,0,0,1-4.62,8.82,18.42,18.42,0,0,1-11.17,3.24Z"/><path class="cls-1" d="M292.2,8.25a10,10,0,0,1,10.4,10.4V132.26q0,7.7,2.91,12.69t7.49,5h5.2a8.65,8.65,0,0,1,6.76,2.91,10.84,10.84,0,0,1,2.6,7.49,8.93,8.93,0,0,1-4,7.49,16.74,16.74,0,0,1-10.2,2.91H313a28,28,0,0,1-16.13-4.89,31.85,31.85,0,0,1-11.13-13.73,48.16,48.16,0,0,1-4-19.87V18.65a10,10,0,0,1,10.4-10.4m0-3.3a13.27,13.27,0,0,0-13.7,13.7V132.26a51.65,51.65,0,0,0,4.24,21.22A35.23,35.23,0,0,0,295,168.6a31.35,31.35,0,0,0,18,5.46h.42a20,20,0,0,0,12.15-3.56,12.26,12.26,0,0,0,5.29-10.15,14.08,14.08,0,0,0-3.44-9.69,12,12,0,0,0-9.23-4H313c-1.15,0-2.89-.35-4.64-3.36-1.64-2.8-2.46-6.51-2.46-11V18.65a13.27,13.27,0,0,0-13.7-13.7Z"/><path class="cls-3" d="M396.24,175.92a57.3,57.3,0,0,1-27.78-6.75,48.2,48.2,0,0,1-19.55-19.87c-4.61-8.54-6.94-18.9-6.94-30.78V67.34a14.74,14.74,0,1,1,29.47,0v51.19c0,10,2.62,17.59,7.77,22.5s12.22,7.5,21.19,7.5a31.58,31.58,0,0,0,14.09-3.11,23.94,23.94,0,0,0,9.64-8.17A19.48,19.48,0,0,0,427.48,126V67.34a14.23,14.23,0,0,1,4.28-10.66A14.69,14.69,0,0,1,457,67.34v92.8a14.53,14.53,0,0,1-4.07,10.46,15.31,15.31,0,0,1-21.18,0,14.06,14.06,0,0,1-3.18-4.78A51.84,51.84,0,0,1,417.32,172,56.78,56.78,0,0,1,396.24,175.92Z"/><path class="cls-2" d="M442.22,56.73a10,10,0,0,1,10.61,10.61v92.8a10.49,10.49,0,0,1-2.91,7.59,10.67,10.67,0,0,1-18.31-7.59v-2.29a46.23,46.23,0,0,1-15.81,10.3,52.43,52.43,0,0,1-19.56,3.64,53,53,0,0,1-25.8-6.24,43.94,43.94,0,0,1-17.89-18.21q-6.45-12-6.45-28.82V67.34a10.61,10.61,0,1,1,21.22,0v51.19q0,16.85,9.05,25.49t24,8.64a35.49,35.49,0,0,0,15.92-3.54,28.21,28.21,0,0,0,11.24-9.57A23.69,23.69,0,0,0,431.61,126V67.34a10.21,10.21,0,0,1,3-7.7,10.49,10.49,0,0,1,7.59-2.91m0-8.25a18.77,18.77,0,0,0-13.33,5.23,18.45,18.45,0,0,0-5.53,13.63V126a15.48,15.48,0,0,1-2.65,8.92,19.94,19.94,0,0,1-8,6.78,27.12,27.12,0,0,1-12.27,2.69c-7.86,0-13.86-2.08-18.34-6.35s-6.5-10.55-6.5-19.52V67.34a18.86,18.86,0,1,0-37.72,0v51.19c0,12.57,2.5,23.58,7.44,32.73a52.25,52.25,0,0,0,21.21,21.53,63.77,63.77,0,0,0,52.36,3,56.93,56.93,0,0,0,8.32-4.11,18.83,18.83,0,0,0,1.64,1.86,19.43,19.43,0,0,0,27.06-.11,18.76,18.76,0,0,0,5.23-13.32V67.34a18.23,18.23,0,0,0-18.86-18.86Z"/><path class="cls-1" d="M396.24,173.45A54.85,54.85,0,0,1,369.64,167a45.76,45.76,0,0,1-18.56-18.87c-4.41-8.18-6.65-18.14-6.65-29.6V67.34a12.26,12.26,0,1,1,24.52,0v51.19c0,10.72,2.87,18.89,8.54,24.29S390.89,151,400.4,151a34,34,0,0,0,15.19-3.37,26.72,26.72,0,0,0,10.6-9A22.18,22.18,0,0,0,430,126V67.34a11.85,11.85,0,0,1,3.52-8.88,12.22,12.22,0,0,1,21,8.88v92.8a12.14,12.14,0,0,1-3.38,8.74,12.84,12.84,0,0,1-17.65,0,11.7,11.7,0,0,1-3.43-7.35,48.64,48.64,0,0,1-13.62,8.13A54.3,54.3,0,0,1,396.24,173.45Z"/><path class="cls-1" d="M442.22,56.73a10,10,0,0,1,10.61,10.61v92.8a10.49,10.49,0,0,1-2.91,7.59,10.67,10.67,0,0,1-18.31-7.59,1,1,0,0,0-1-1,1,1,0,0,0-.66.26,46.55,46.55,0,0,1-14.17,8.74,52.43,52.43,0,0,1-19.56,3.64,53,53,0,0,1-25.8-6.24,43.94,43.94,0,0,1-17.89-18.21q-6.45-12-6.45-28.82V67.34a10.61,10.61,0,1,1,21.22,0v51.19q0,16.85,9.05,25.49t24,8.64a35.49,35.49,0,0,0,15.92-3.54,28.21,28.21,0,0,0,11.24-9.57A23.69,23.69,0,0,0,431.61,126V67.34a10.21,10.21,0,0,1,3-7.7,10.49,10.49,0,0,1,7.59-2.91m0-3.3a13.73,13.73,0,0,0-9.89,3.84,13.44,13.44,0,0,0-4,10.07V126a20.28,20.28,0,0,1-3.5,11.68,25.09,25.09,0,0,1-10,8.45,32.39,32.39,0,0,1-14.46,3.2c-9.19,0-16.31-2.53-21.76-7.72s-8-12.85-8-23.1V67.34a13.91,13.91,0,1,0-27.82,0v51.19c0,11.74,2.3,22,6.85,30.38a47.38,47.38,0,0,0,19.22,19.54A58.83,58.83,0,0,0,417,171.22a50.86,50.86,0,0,0,11.92-6.67,13.19,13.19,0,0,0,3.36,5.53,14.49,14.49,0,0,0,20,0,13.73,13.73,0,0,0,3.84-9.89V67.34a13.3,13.3,0,0,0-13.91-13.91Z"/><path class="cls-1" d="M55.49,298.81a47.49,47.49,0,0,1-24.76-6.72,48.4,48.4,0,0,1-17.64-18.33,52,52,0,0,1-6.42-25.51,51.4,51.4,0,0,1,6.43-25.34,49,49,0,0,1,17.62-18.31,47.2,47.2,0,0,1,24.77-6.79,49.25,49.25,0,0,1,16.63,2.56,50,50,0,0,1,14.17,8.27,9.47,9.47,0,0,1,3.12,3.79,10.84,10.84,0,0,1,.79,4.21,9,9,0,0,1-3.05,6.89,9.79,9.79,0,0,1-6.63,2.56,10.34,10.34,0,0,1-6.66-2.43,30,30,0,0,0-8.18-5.21,28.3,28.3,0,0,0-10.17-1.5,26.43,26.43,0,0,0-14.43,4.12,30.39,30.39,0,0,0-10.61,11.39,33.66,33.66,0,0,0,0,31.65,30.5,30.5,0,0,0,10.62,11.35,26.41,26.41,0,0,0,14.43,4.12c6.55,0,12.72-2.23,18.83-6.82l.1-.07a10.7,10.7,0,0,1,6.2-2.14,8.87,8.87,0,0,1,6.67,2.89,10.31,10.31,0,0,1-.51,14.11l-.16.16-.17.14A48.24,48.24,0,0,1,55.49,298.81Z"/><path class="cls-2" d="M55.49,201.92a45,45,0,0,1,15.23,2.32,45.72,45.72,0,0,1,13,7.64A5.48,5.48,0,0,1,85.6,214a6.72,6.72,0,0,1,.46,2.61,4.91,4.91,0,0,1-1.68,3.82A5.64,5.64,0,0,1,80.5,222a6.28,6.28,0,0,1-4.05-1.51,33.74,33.74,0,0,0-9.26-5.85,32.11,32.11,0,0,0-11.7-1.8,30.71,30.71,0,0,0-16.62,4.75,34.33,34.33,0,0,0-12,12.91,37.78,37.78,0,0,0,0,35.61,34.43,34.43,0,0,0,12,12.85,30.7,30.7,0,0,0,16.62,4.75q11.12,0,21.31-7.64a6.65,6.65,0,0,1,3.82-1.39,4.76,4.76,0,0,1,3.65,1.56,5.82,5.82,0,0,1,1.45,4.11,5.89,5.89,0,0,1-1.85,4.28,44,44,0,0,1-28.37,10.08,43.22,43.22,0,0,1-22.64-6.14,44.13,44.13,0,0,1-16.16-16.79,47.67,47.67,0,0,1-5.91-23.51,47.12,47.12,0,0,1,5.91-23.34,44.7,44.7,0,0,1,16.16-16.79,42.93,42.93,0,0,1,22.64-6.2m0-8.25a51.27,51.27,0,0,0-26.91,7.39A53.05,53.05,0,0,0,9.49,220.9a57.64,57.64,0,0,0,0,54.86,52.48,52.48,0,0,0,19.13,19.87,51.55,51.55,0,0,0,26.88,7.31A52.27,52.27,0,0,0,89,291l.35-.28.31-.31a14.43,14.43,0,0,0,.63-19.83,13.08,13.08,0,0,0-9.7-4.21A14.73,14.73,0,0,0,72,269.3l-.1.07-.09.07c-5.38,4-10.73,6-16.36,6a22.4,22.4,0,0,1-12.24-3.49,26.08,26.08,0,0,1-9.19-9.84,29.54,29.54,0,0,1,0-27.68,26,26,0,0,1,9.18-9.87,22.42,22.42,0,0,1,12.24-3.49c4.63,0,7.26.66,8.65,1.21a25.81,25.81,0,0,1,7,4.46l.07.06.07.06a14.55,14.55,0,0,0,9.26,3.36,13.86,13.86,0,0,0,9.39-3.61,13.21,13.21,0,0,0,4.42-10,14.92,14.92,0,0,0-1.1-5.79,13.51,13.51,0,0,0-4.38-5.46,54,54,0,0,0-15.31-8.9,53.34,53.34,0,0,0-18-2.81Z"/><path class="cls-1" d="M55.49,296.75a45.46,45.46,0,0,1-23.7-6.43,46.37,46.37,0,0,1-16.9-17.56,49.92,49.92,0,0,1-6.17-24.51,49.37,49.37,0,0,1,6.17-24.34,46.92,46.92,0,0,1,16.89-17.55,45.16,45.16,0,0,1,23.71-6.49,47.21,47.21,0,0,1,15.93,2.44,47.94,47.94,0,0,1,13.63,8,7.4,7.4,0,0,1,2.46,2.95,8.8,8.8,0,0,1,.63,3.41A7,7,0,0,1,85.76,222a7.66,7.66,0,0,1-5.25,2,8.32,8.32,0,0,1-5.36-2,32,32,0,0,0-8.72-5.53,30.29,30.29,0,0,0-10.94-1.65A28.82,28.82,0,0,0,40,219.31a32.44,32.44,0,0,0-11.33,12.15,35.73,35.73,0,0,0,0,33.63A32.55,32.55,0,0,0,40,277.19a28.8,28.8,0,0,0,15.52,4.43c6.92,0,13.67-2.43,20.07-7.23a8.75,8.75,0,0,1,5.06-1.8,6.86,6.86,0,0,1,5.16,2.22,8.25,8.25,0,0,1-.46,11.25l-.08.08-.09.07A46.22,46.22,0,0,1,55.49,296.75Z"/><path class="cls-1" d="M55.49,201.92a45,45,0,0,1,15.23,2.32,45.72,45.72,0,0,1,13,7.64A5.48,5.48,0,0,1,85.6,214a6.72,6.72,0,0,1,.46,2.61,4.91,4.91,0,0,1-1.68,3.82A5.64,5.64,0,0,1,80.5,222a6.28,6.28,0,0,1-4.05-1.51,33.74,33.74,0,0,0-9.26-5.85,32.11,32.11,0,0,0-11.7-1.8,30.71,30.71,0,0,0-16.62,4.75,34.33,34.33,0,0,0-12,12.91,37.78,37.78,0,0,0,0,35.61,34.43,34.43,0,0,0,12,12.85,30.7,30.7,0,0,0,16.62,4.75q11.12,0,21.31-7.64a6.65,6.65,0,0,1,3.82-1.39,4.76,4.76,0,0,1,3.65,1.56,5.82,5.82,0,0,1,1.45,4.11,5.89,5.89,0,0,1-1.85,4.28,44,44,0,0,1-28.37,10.08,43.22,43.22,0,0,1-22.64-6.14,44.13,44.13,0,0,1-16.16-16.79,47.67,47.67,0,0,1-5.91-23.51,47.12,47.12,0,0,1,5.91-23.34,44.7,44.7,0,0,1,16.16-16.79,42.93,42.93,0,0,1,22.64-6.2m0-4.12a47.2,47.2,0,0,0-24.77,6.79A49,49,0,0,0,13.09,222.9a51.41,51.41,0,0,0-6.43,25.34,52,52,0,0,0,6.42,25.51,48.41,48.41,0,0,0,17.64,18.33,47.48,47.48,0,0,0,24.76,6.72,48.24,48.24,0,0,0,31-11l.17-.14.16-.16a10.31,10.31,0,0,0,.52-14.11,8.88,8.88,0,0,0-6.68-2.89,10.69,10.69,0,0,0-6.2,2.15l0,0,0,0c-6.12,4.59-12.28,6.82-18.83,6.82a26.41,26.41,0,0,1-14.43-4.12,30.51,30.51,0,0,1-10.62-11.35,33.66,33.66,0,0,1,0-31.65,30.41,30.41,0,0,1,10.61-11.39,26.43,26.43,0,0,1,14.43-4.12,28.31,28.31,0,0,1,10.17,1.5,29.84,29.84,0,0,1,8.11,5.15l0,0,0,0a10.33,10.33,0,0,0,6.66,2.43,9.8,9.8,0,0,0,6.63-2.56,9,9,0,0,0,3-6.89,10.83,10.83,0,0,0-.78-4.2,9.47,9.47,0,0,0-3.12-3.8,50,50,0,0,0-14.17-8.27,49.26,49.26,0,0,0-16.63-2.56Z"/><path class="cls-1" d="M182.76,297.65a10.18,10.18,0,0,1-5.5-1.62,9.64,9.64,0,0,1-3.89-4.68l-4-10a5.71,5.71,0,0,0-5.33-3.61H135.78a5.72,5.72,0,0,0-5.32,3.58l-4.14,10.16,0,.09a10.5,10.5,0,0,1-3.8,4.43,9.89,9.89,0,0,1-5.5,1.66,9.66,9.66,0,0,1-7.24-3.11,10.14,10.14,0,0,1-2.79-7,11.61,11.61,0,0,1,.86-4.15l32.58-77.81c1.83-4.26,5.19-6.59,9.48-6.59a9.66,9.66,0,0,1,9.51,6.66l32.67,78a11.26,11.26,0,0,1,.85,4,9.83,9.83,0,0,1-2.95,7.09A10,10,0,0,1,182.76,297.65ZM150,242.92a5.63,5.63,0,0,0-5.31,3.56l-2.1,5.12a5.74,5.74,0,0,0,5.31,7.92h4.16a5.74,5.74,0,0,0,5.33-7.88l-2.06-5.12A5.63,5.63,0,0,0,150,242.92Z"/><path class="cls-2" d="M149.87,203.08a5.62,5.62,0,0,1,5.67,4.05l32.66,77.94a7.38,7.38,0,0,1,.58,2.55,5.68,5.68,0,0,1-1.74,4.17,5.82,5.82,0,0,1-4.28,1.74,6.09,6.09,0,0,1-3.3-1,5.58,5.58,0,0,1-2.26-2.72l-4-10a9.87,9.87,0,0,0-9.16-6.2H135.78a9.87,9.87,0,0,0-9.14,6.15l-4.1,10.07a6.41,6.41,0,0,1-2.32,2.72,5.81,5.81,0,0,1-3.24,1,5.54,5.54,0,0,1-4.23-1.79,6,6,0,0,1-1.68-4.23,7.54,7.54,0,0,1,.58-2.66l32.54-77.71q1.74-4.05,5.67-4.05m-2,60.57h4.16a9.87,9.87,0,0,0,9.16-13.55L159.17,245a9.87,9.87,0,0,0-18.29-.07l-2.1,5.12a9.87,9.87,0,0,0,9.13,13.61m2-68.82c-6,0-10.79,3.3-13.26,9.05v.06L104,281.66l0,.11,0,.11a15.71,15.71,0,0,0-1.13,5.63,14.2,14.2,0,0,0,3.91,9.86A13.69,13.69,0,0,0,117,301.78a14.14,14.14,0,0,0,7.76-2.33,14.55,14.55,0,0,0,5.27-6.13l.09-.19.08-.19,4.1-10.07a1.61,1.61,0,0,1,1.5-1H164a1.61,1.61,0,0,1,1.5,1l4,10a13.88,13.88,0,0,0,5.53,6.64,14.23,14.23,0,0,0,7.69,2.25,14,14,0,0,0,10.12-4.16,13.87,13.87,0,0,0,4.15-10,15.27,15.27,0,0,0-1.13-5.5l0-.12,0-.12-32.6-77.81a13.87,13.87,0,0,0-13.34-9.25Zm-2,60.57a1.62,1.62,0,0,1-1.5-2.23l2.1-5.12a1.62,1.62,0,0,1,3,0l2.06,5.12a1.62,1.62,0,0,1-1.5,2.22Z"/><path class="cls-1" d="M182.76,295.59a8.15,8.15,0,0,1-4.4-1.3,7.62,7.62,0,0,1-3.07-3.7l-4.39-11a6.24,6.24,0,0,0-5.82-3.94H134.75a6.24,6.24,0,0,0-5.8,3.9l-4.53,11.12a8.46,8.46,0,0,1-3.06,3.58,7.86,7.86,0,0,1-4.37,1.32,7.55,7.55,0,0,1-5.74-2.45,8,8,0,0,1-2.23-5.63,9.58,9.58,0,0,1,.72-3.41l32.56-77.76c1.89-4.4,5.16-5.32,7.58-5.32a7.63,7.63,0,0,1,7.61,5.4l32.63,77.86a9.39,9.39,0,0,1,.74,3.34,7.7,7.7,0,0,1-2.34,5.63A7.84,7.84,0,0,1,182.76,295.59ZM150,238.3a6.18,6.18,0,0,0-5.8,3.89l-4.41,10.75a6.27,6.27,0,0,0,5.8,8.64h8.73a6.27,6.27,0,0,0,5.81-8.6l-4.32-10.75A6.17,6.17,0,0,0,150,238.3Z"/><path class="cls-1" d="M149.87,203.08a5.62,5.62,0,0,1,5.67,4.05l32.66,77.94a7.38,7.38,0,0,1,.58,2.55,5.68,5.68,0,0,1-1.74,4.17,5.82,5.82,0,0,1-4.28,1.74,6.09,6.09,0,0,1-3.3-1,5.58,5.58,0,0,1-2.26-2.72l-4.39-11a8.33,8.33,0,0,0-7.73-5.24H134.75A8.33,8.33,0,0,0,127,278.8l-4.49,11a6.41,6.41,0,0,1-2.32,2.72,5.81,5.81,0,0,1-3.24,1,5.54,5.54,0,0,1-4.23-1.79,6,6,0,0,1-1.68-4.23,7.54,7.54,0,0,1,.58-2.66l32.54-77.71q1.74-4.05,5.67-4.05m-4.26,60.57h8.73a8.33,8.33,0,0,0,7.73-11.43l-4.32-10.75a8.33,8.33,0,0,0-15.43-.06l-4.41,10.75a8.33,8.33,0,0,0,7.71,11.49M149.87,199c-4.29,0-7.65,2.33-9.47,6.55l-32.55,77.74,0,.05,0,.06a11.47,11.47,0,0,0-.86,4.15,10.14,10.14,0,0,0,2.79,7,9.66,9.66,0,0,0,7.24,3.1,9.89,9.89,0,0,0,5.5-1.66,10.49,10.49,0,0,0,3.79-4.43l0-.09,0-.1,4.49-11a4.19,4.19,0,0,1,3.89-2.62h30.33a4.18,4.18,0,0,1,3.9,2.64l4.39,11a9.65,9.65,0,0,0,3.89,4.68,10.17,10.17,0,0,0,5.5,1.62,10,10,0,0,0,7.2-2.95,9.82,9.82,0,0,0,2.94-7.08,11.27,11.27,0,0,0-.85-4l0-.06,0-.06-32.63-77.87a9.66,9.66,0,0,0-9.51-6.66Zm-4.26,60.57a4.2,4.2,0,0,1-3.89-5.8L146.14,243a4.2,4.2,0,0,1,7.79,0l4.32,10.75a4.2,4.2,0,0,1-3.9,5.77Z"/><path class="cls-1" d="M269.52,297.65a9.72,9.72,0,0,1-8.34-4.28l-24.1-32.67a3.35,3.35,0,0,0-6.05,2v24.81a10.14,10.14,0,0,1-17.24,7.25,9.86,9.86,0,0,1-3-7.25V209.1a9.86,9.86,0,0,1,3.05-7.25A10.12,10.12,0,0,1,231,209.1v16.69a3.37,3.37,0,0,0,3.41,3.37,3.19,3.19,0,0,0,2.32-1l25.56-25.56a13.36,13.36,0,0,1,3.64-2.72,9.85,9.85,0,0,1,4.25-.92,8.89,8.89,0,0,1,6.8,2.78,9.19,9.19,0,0,1,2.42,6.33,11.29,11.29,0,0,1-3.41,8.13l-25,25.1a3.34,3.34,0,0,0-.33,4.35L277,281.47a10.56,10.56,0,0,1-.51,12.91A8.86,8.86,0,0,1,269.52,297.65Z"/><path class="cls-2" d="M270.22,203.08a4.86,4.86,0,0,1,3.76,1.45,5,5,0,0,1,1.33,3.53,7.12,7.12,0,0,1-2.2,5.21l-25,25.11a7.48,7.48,0,0,0-.73,9.71l26.32,35.83a6.43,6.43,0,0,1-.35,7.82,4.77,4.77,0,0,1-3.82,1.79,5.66,5.66,0,0,1-5-2.55l-24.14-32.73a7.48,7.48,0,0,0-13.5,4.44v24.81a5.93,5.93,0,0,1-6,6,5.88,5.88,0,0,1-4.23-1.74,5.72,5.72,0,0,1-1.79-4.28V209.1a5.73,5.73,0,0,1,1.79-4.29,6,6,0,0,1,10.25,4.29v16.69a7.47,7.47,0,0,0,7.53,7.49,7.32,7.32,0,0,0,5.23-2.21l25.56-25.56a9.5,9.5,0,0,1,2.49-1.91,5.73,5.73,0,0,1,2.49-.52m0-8.25a13.94,13.94,0,0,0-6,1.32,17.32,17.32,0,0,0-4.78,3.53l-24.25,24.25V209.1a14.27,14.27,0,0,0-28.54,0v78.4a13.9,13.9,0,0,0,4.31,10.22,14.24,14.24,0,0,0,24.23-10.22V265l22.67,30.74a13.86,13.86,0,0,0,11.69,6A13,13,0,0,0,279.67,297a14.68,14.68,0,0,0,.75-17.9l0-.05,0,0-25.93-35.3L279,219.1a15.32,15.32,0,0,0,4.6-11,13.24,13.24,0,0,0-3.5-9.11,12.92,12.92,0,0,0-9.84-4.12Z"/><path class="cls-1" d="M269.52,295.59a7.74,7.74,0,0,1-6.68-3.45l-24.09-32.66a5.42,5.42,0,0,0-9.78,3.22v24.81a8.08,8.08,0,0,1-13.75,5.77,7.74,7.74,0,0,1-2.42-5.77V209.1a7.74,7.74,0,0,1,2.42-5.77A8.06,8.06,0,0,1,229,209.1v16.69a5.4,5.4,0,0,0,5.47,5.43,5.25,5.25,0,0,0,3.78-1.6l25.56-25.56a11.37,11.37,0,0,1,3.06-2.32,7.8,7.8,0,0,1,3.37-.72,6.85,6.85,0,0,1,5.28,2.11,7.07,7.07,0,0,1,1.88,4.93,9.15,9.15,0,0,1-2.8,6.67l-25,25.1a5.39,5.39,0,0,0-.53,7l26.32,35.83a8.49,8.49,0,0,1-.43,10.36A6.85,6.85,0,0,1,269.52,295.59Z"/><path class="cls-1" d="M270.22,203.08a4.86,4.86,0,0,1,3.76,1.45,5,5,0,0,1,1.33,3.53,7.12,7.12,0,0,1-2.2,5.21l-25,25.11a7.48,7.48,0,0,0-.73,9.71l26.32,35.83a6.43,6.43,0,0,1-.35,7.82,4.77,4.77,0,0,1-3.82,1.79,5.66,5.66,0,0,1-5-2.55l-24.14-32.73a7.48,7.48,0,0,0-13.5,4.44v24.81a5.93,5.93,0,0,1-6,6,5.88,5.88,0,0,1-4.23-1.74,5.72,5.72,0,0,1-1.79-4.28V209.1a5.73,5.73,0,0,1,1.79-4.29,6,6,0,0,1,10.25,4.29v16.69a7.47,7.47,0,0,0,7.53,7.49,7.32,7.32,0,0,0,5.23-2.21l25.56-25.56a9.5,9.5,0,0,1,2.49-1.91,5.73,5.73,0,0,1,2.49-.52m0-4.12a9.85,9.85,0,0,0-4.26.92,13.34,13.34,0,0,0-3.64,2.72l-25.56,25.56a3.19,3.19,0,0,1-2.32,1,3.37,3.37,0,0,1-3.41-3.37V209.1a10.14,10.14,0,0,0-17.24-7.25,9.86,9.86,0,0,0-3.05,7.25v78.4a9.86,9.86,0,0,0,3.05,7.25A10.12,10.12,0,0,0,231,287.51V262.69a3.35,3.35,0,0,1,6.05-2l24.1,32.67a9.72,9.72,0,0,0,8.34,4.28,8.86,8.86,0,0,0,7-3.27,10.56,10.56,0,0,0,.55-12.86l0,0,0,0L250.7,245.64a3.34,3.34,0,0,1,.33-4.35l25-25.11a11.28,11.28,0,0,0,3.4-8.12,9.18,9.18,0,0,0-2.42-6.32,8.89,8.89,0,0,0-6.8-2.78Z"/><path class="cls-1" d="M307.33,297.65a10.06,10.06,0,0,1-10.15-10.15V209.1a9.91,9.91,0,0,1,3-7.31,10.09,10.09,0,0,1,7.15-2.84h52.34a10.06,10.06,0,0,1,7.15,2.72,9.58,9.58,0,0,1,2.89,7.08,9.23,9.23,0,0,1-2.94,7,10.19,10.19,0,0,1-7.09,2.61H327.42a9.95,9.95,0,1,0,0,19.89h19.17a10.12,10.12,0,0,1,7,2.67,9.72,9.72,0,0,1,0,14,10.13,10.13,0,0,1-7,2.67H327.42a10,10,0,0,0-9.95,9.95v.81a10,10,0,0,0,9.95,9.95h32.25a10.21,10.21,0,0,1,7.09,2.6,9.25,9.25,0,0,1,2.94,7,9.57,9.57,0,0,1-2.88,7.08,10.06,10.06,0,0,1-7.15,2.72Z"/><path class="cls-2" d="M359.67,203.08a5.92,5.92,0,0,1,4.29,1.56,5.45,5.45,0,0,1,1.62,4.11,5.12,5.12,0,0,1-1.62,3.94,6,6,0,0,1-4.29,1.51H327.42a14.07,14.07,0,1,0,0,28.14h19.17a6,6,0,0,1,4.23,1.56,5.59,5.59,0,0,1,0,8,6,6,0,0,1-4.23,1.56H327.42a14.07,14.07,0,0,0-14.07,14.07v.81a14.07,14.07,0,0,0,14.07,14.07h32.25a6.06,6.06,0,0,1,4.29,1.51,5.13,5.13,0,0,1,1.62,3.94A5.45,5.45,0,0,1,364,292a5.92,5.92,0,0,1-4.29,1.56H307.33a5.93,5.93,0,0,1-6-6V209.1a5.78,5.78,0,0,1,1.74-4.34,5.93,5.93,0,0,1,4.29-1.68h52.34m0-8.25H307.33a14.14,14.14,0,0,0-10,4,14,14,0,0,0-4.26,10.28v78.4a14.18,14.18,0,0,0,14.27,14.27h52.34a14.1,14.1,0,0,0,10-3.87,13.62,13.62,0,0,0,4.15-10.05,13.45,13.45,0,0,0-4.25-10,14.26,14.26,0,0,0-9.9-3.71H327.42a5.83,5.83,0,0,1-5.82-5.82v-.81a5.83,5.83,0,0,1,5.82-5.82h19.17a14.17,14.17,0,0,0,9.85-3.77,13.84,13.84,0,0,0,0-20.06,14.18,14.18,0,0,0-9.85-3.78H327.42a5.82,5.82,0,1,1,0-11.64h32.25a14.25,14.25,0,0,0,9.9-3.71,13.44,13.44,0,0,0,4.26-10,13.61,13.61,0,0,0-4.14-10,14.11,14.11,0,0,0-10-3.87Z"/><path class="cls-1" d="M307.33,295.59a8,8,0,0,1-8.08-8.08V209.1a7.79,7.79,0,0,1,2.37-5.83,8,8,0,0,1,5.72-2.26h52.34a7.93,7.93,0,0,1,5.72,2.14,7.46,7.46,0,0,1,2.25,5.6,7.22,7.22,0,0,1-2.28,5.45,8.07,8.07,0,0,1-5.69,2.06H327.42a12,12,0,1,0,0,24h19.17a8,8,0,0,1,5.63,2.12,7.65,7.65,0,0,1,0,11,8,8,0,0,1-5.63,2.12H327.42a12,12,0,0,0-12,12v.81a12,12,0,0,0,12,12h32.25a8.08,8.08,0,0,1,5.69,2.05,7.14,7.14,0,0,1,2.28,5.45,7.46,7.46,0,0,1-2.25,5.6,7.94,7.94,0,0,1-5.72,2.14Z"/><path class="cls-1" d="M359.67,203.08a5.92,5.92,0,0,1,4.29,1.56,5.45,5.45,0,0,1,1.62,4.11,5.12,5.12,0,0,1-1.62,3.94,6,6,0,0,1-4.29,1.51H327.42a14.07,14.07,0,0,0-14.07,14.07h0a14.07,14.07,0,0,0,14.07,14.07h19.17a6,6,0,0,1,4.23,1.56,5.59,5.59,0,0,1,0,8,6,6,0,0,1-4.23,1.56H327.42a14.07,14.07,0,0,0-14.07,14.07v.81a14.07,14.07,0,0,0,14.07,14.07h32.25a6.06,6.06,0,0,1,4.29,1.51,5.13,5.13,0,0,1,1.62,3.94A5.45,5.45,0,0,1,364,292a5.92,5.92,0,0,1-4.29,1.56H307.33a5.93,5.93,0,0,1-6-6V209.1a5.78,5.78,0,0,1,1.74-4.34,5.93,5.93,0,0,1,4.29-1.68h52.34m0-4.12H307.33a10.09,10.09,0,0,0-7.15,2.84,9.91,9.91,0,0,0-3,7.31v78.4a10.06,10.06,0,0,0,10.15,10.15h52.34a10.06,10.06,0,0,0,7.15-2.72,9.58,9.58,0,0,0,2.89-7.08,9.24,9.24,0,0,0-2.94-7,10.21,10.21,0,0,0-7.09-2.61H327.42a10,10,0,0,1-9.95-9.95v-.81a10,10,0,0,1,9.95-9.95h19.17a10.12,10.12,0,0,0,7-2.67,9.71,9.71,0,0,0,0-14,10.12,10.12,0,0,0-7-2.67H327.42a9.95,9.95,0,1,1,0-19.89h32.25a10.2,10.2,0,0,0,7.09-2.61,9.23,9.23,0,0,0,2.94-7,9.57,9.57,0,0,0-2.88-7.08,10.06,10.06,0,0,0-7.15-2.72Z"/><path class="cls-1" d="M420.29,298.81a45.75,45.75,0,0,1-22.44-5.61c-6.94-3.84-11.81-9-14.48-15.32a10.16,10.16,0,0,1-.9-3.92,8.44,8.44,0,0,1,2.42-5.92,10.53,10.53,0,0,1,5.45-2.95,8.35,8.35,0,0,1,2.16-.24,10.44,10.44,0,0,1,5.79,1.77,10.76,10.76,0,0,1,4,4.75c1,2.06,3.09,4,6.32,5.62a25.46,25.46,0,0,0,11.68,2.68,22.11,22.11,0,0,0,12.43-3.31,8.42,8.42,0,0,0,4.18-7.51,10.76,10.76,0,0,0-3.76-8.26c-2.71-2.49-7.13-4.06-13.13-4.66-10.37-1-18.74-4.15-24.85-9.36a26.16,26.16,0,0,1-9.67-20.68,24.22,24.22,0,0,1,5.11-15.34A30.58,30.58,0,0,1,403.92,201a49.87,49.87,0,0,1,18-3.11c7.36,0,13.71,1.56,18.9,4.63a38.85,38.85,0,0,1,13,12.93,11.92,11.92,0,0,1,2,6.37,9.06,9.06,0,0,1-4.08,7.55l-.15.1a9.57,9.57,0,0,1-5.23,1.46,10.48,10.48,0,0,1-5.31-1.42,10,10,0,0,1-3.83-3.89,17.79,17.79,0,0,0-6.31-6.42,19.54,19.54,0,0,0-9.8-2.16c-5.05,0-9.11.94-12.05,2.79a6.89,6.89,0,0,0-3.51,6.41,8.49,8.49,0,0,0,3.38,6.91c1.78,1.48,5.85,3.45,15.15,4.39,10.12,1,18.17,4.2,23.91,9.46,6,5.46,9,12.7,9,21.51a27.14,27.14,0,0,1-5.35,16.79,31.4,31.4,0,0,1-13.76,10.26A47.53,47.53,0,0,1,420.29,298.81Z"/><path class="cls-2" d="M421.91,202q10,0,16.79,4.05a34.62,34.62,0,0,1,11.58,11.58,7.87,7.87,0,0,1,1.39,4.17,4.9,4.9,0,0,1-2.32,4.17,5.49,5.49,0,0,1-3,.81,6.38,6.38,0,0,1-3.24-.87,5.94,5.94,0,0,1-2.32-2.37,22,22,0,0,0-7.82-7.93,23.4,23.4,0,0,0-11.87-2.72q-8.8,0-14.24,3.42a11,11,0,0,0-5.44,9.9,12.6,12.6,0,0,0,4.86,10.08q4.86,4.05,17.37,5.33,13.9,1.39,21.54,8.4t7.64,18.47a23,23,0,0,1-4.52,14.3,27.21,27.21,0,0,1-12,8.92,43.23,43.23,0,0,1-16,3,41.48,41.48,0,0,1-20.44-5.1q-9.21-5.09-12.68-13.32a6.27,6.27,0,0,1-.58-2.32,4.31,4.31,0,0,1,1.27-3.07,6.53,6.53,0,0,1,3.47-1.79,4.11,4.11,0,0,1,1.16-.12,6.35,6.35,0,0,1,3.53,1.1,6.66,6.66,0,0,1,2.49,3q2.08,4.52,8.22,7.64a29.41,29.41,0,0,0,13.55,3.13,26,26,0,0,0,14.71-4,12.48,12.48,0,0,0,6-10.94,14.81,14.81,0,0,0-5.1-11.29q-5.1-4.69-15.52-5.73-14.36-1.39-22.58-8.4a22.1,22.1,0,0,1-8.22-17.54,20.1,20.1,0,0,1,4.23-12.8,26.4,26.4,0,0,1,11.58-8.22,45.55,45.55,0,0,1,16.5-2.84m0-8.25a54,54,0,0,0-19.47,3.39A34.64,34.64,0,0,0,387.34,208a28.24,28.24,0,0,0-6,17.89,30.5,30.5,0,0,0,11.12,23.82c6.76,5.76,15.89,9.24,27.14,10.33,5,.5,8.72,1.74,10.73,3.59a6.59,6.59,0,0,1,2.43,5.22c0,1.6-.38,2.77-2.33,4.07a17.86,17.86,0,0,1-10.15,2.62,21.09,21.09,0,0,1-9.8-2.23c-2.32-1.18-3.86-2.47-4.46-3.71a14.8,14.8,0,0,0-5.47-6.43,14.5,14.5,0,0,0-8.06-2.45,12.4,12.4,0,0,0-3.15.36,14.56,14.56,0,0,0-7.44,4.1,12.49,12.49,0,0,0-3.57,8.78,14.15,14.15,0,0,0,1.22,5.5c3.05,7.23,8.53,13.06,16.3,17.35a49.82,49.82,0,0,0,24.43,6.13,51.64,51.64,0,0,0,19.07-3.53,35.47,35.47,0,0,0,15.53-11.61,31.17,31.17,0,0,0,6.19-19.28c0-10-3.47-18.27-10.32-24.55-6.42-5.88-15.26-9.42-26.3-10.52-9.26-.94-12.22-2.88-12.91-3.46a4.39,4.39,0,0,1-1.9-3.74,2.84,2.84,0,0,1,1.58-2.91c2.28-1.43,5.59-2.15,9.86-2.15a15.58,15.58,0,0,1,7.73,1.61,13.73,13.73,0,0,1,4.81,4.92,14.09,14.09,0,0,0,5.34,5.4,14.54,14.54,0,0,0,7.36,2,13.63,13.63,0,0,0,7.44-2.1l.16-.1.15-.11a13.08,13.08,0,0,0,5.83-10.93,16,16,0,0,0-2.66-8.57A42.93,42.93,0,0,0,442.91,199c-5.83-3.46-12.9-5.21-21-5.21Z"/><path class="cls-1" d="M420.29,296.75a43.72,43.72,0,0,1-21.44-5.35c-6.52-3.61-11.09-8.43-13.58-14.32a8.18,8.18,0,0,1-.74-3.12,6.33,6.33,0,0,1,1.85-4.49,8.53,8.53,0,0,1,4.45-2.37,6.26,6.26,0,0,1,1.67-.18,8.42,8.42,0,0,1,4.66,1.44,8.72,8.72,0,0,1,3.25,3.85c1.17,2.53,3.62,4.78,7.27,6.63a27.5,27.5,0,0,0,12.61,2.9,24.13,24.13,0,0,0,13.57-3.65,10.45,10.45,0,0,0,5.1-9.23,12.72,12.72,0,0,0-4.43-9.77c-3-2.8-7.87-4.55-14.33-5.2-10-1-17.93-3.95-23.72-8.88a24.17,24.17,0,0,1-8.95-19.11,22.2,22.2,0,0,1,4.67-14.07A28.53,28.53,0,0,1,404.67,203a47.8,47.8,0,0,1,17.24-3c7,0,13,1.46,17.84,4.34A36.81,36.81,0,0,1,452,216.57a9.91,9.91,0,0,1,1.71,5.27,7,7,0,0,1-3.2,5.86,7.59,7.59,0,0,1-4.19,1.18,8.44,8.44,0,0,1-4.27-1.14,8,8,0,0,1-3.1-3.18,20,20,0,0,0-7-7.13A21.51,21.51,0,0,0,421.1,215c-5.45,0-9.87,1-13.15,3.1a9,9,0,0,0-4.48,8.15,10.55,10.55,0,0,0,4.12,8.49c2.91,2.42,8.38,4.06,16.26,4.86,9.67,1,17.32,4,22.72,8.93s8.31,11.78,8.31,20A25.12,25.12,0,0,1,450,284.06a29.37,29.37,0,0,1-12.87,9.59A45.47,45.47,0,0,1,420.29,296.75Z"/><path class="cls-1" d="M421.91,202q10,0,16.79,4.05a34.62,34.62,0,0,1,11.58,11.58,7.87,7.87,0,0,1,1.39,4.17,4.9,4.9,0,0,1-2.32,4.17,5.49,5.49,0,0,1-3,.81,6.38,6.38,0,0,1-3.24-.87,5.94,5.94,0,0,1-2.32-2.37,22,22,0,0,0-7.82-7.93,23.4,23.4,0,0,0-11.87-2.72q-8.8,0-14.24,3.42a11,11,0,0,0-5.44,9.9,12.6,12.6,0,0,0,4.86,10.08q4.86,4.05,17.37,5.33,13.9,1.39,21.54,8.4t7.64,18.47a23,23,0,0,1-4.52,14.3,27.21,27.21,0,0,1-12,8.92,43.23,43.23,0,0,1-16,3,41.48,41.48,0,0,1-20.44-5.1q-9.21-5.09-12.68-13.32a6.27,6.27,0,0,1-.58-2.32,4.31,4.31,0,0,1,1.27-3.07,6.53,6.53,0,0,1,3.47-1.79,4.11,4.11,0,0,1,1.16-.12,6.35,6.35,0,0,1,3.53,1.1,6.66,6.66,0,0,1,2.49,3q2.08,4.52,8.22,7.64a29.41,29.41,0,0,0,13.55,3.13,26,26,0,0,0,14.71-4,12.48,12.48,0,0,0,6-10.94,14.81,14.81,0,0,0-5.1-11.29q-5.1-4.69-15.52-5.73-14.36-1.39-22.58-8.4a22.1,22.1,0,0,1-8.22-17.54,20.1,20.1,0,0,1,4.23-12.8,26.4,26.4,0,0,1,11.58-8.22,45.55,45.55,0,0,1,16.5-2.84m0-4.12a49.85,49.85,0,0,0-18,3.11,30.58,30.58,0,0,0-13.34,9.52,24.21,24.21,0,0,0-5.11,15.34,26.15,26.15,0,0,0,9.67,20.68c6.11,5.21,14.47,8.36,24.86,9.36,6,.6,10.41,2.17,13.12,4.66a10.76,10.76,0,0,1,3.76,8.26,8.42,8.42,0,0,1-4.18,7.51,22.11,22.11,0,0,1-12.43,3.31A25.46,25.46,0,0,1,408.61,277c-3.21-1.64-5.35-3.54-6.34-5.67a10.74,10.74,0,0,0-4-4.7,10.44,10.44,0,0,0-5.8-1.78,8.18,8.18,0,0,0-2.17.24,10.54,10.54,0,0,0-5.44,2.94,8.44,8.44,0,0,0-2.42,5.92,10.15,10.15,0,0,0,.9,3.91c2.68,6.34,7.55,11.5,14.49,15.34a45.75,45.75,0,0,0,22.44,5.61,47.53,47.53,0,0,0,17.56-3.24,31.4,31.4,0,0,0,13.76-10.26A27.14,27.14,0,0,0,457,268.51c0-8.81-3-16-9-21.51-5.75-5.27-13.79-8.45-23.92-9.46-9.29-.95-13.36-2.91-15.14-4.39a8.49,8.49,0,0,1-3.38-6.91,6.89,6.89,0,0,1,3.51-6.41c2.95-1.85,7-2.79,12.05-2.79a19.52,19.52,0,0,1,9.8,2.16,17.78,17.78,0,0,1,6.31,6.42,10,10,0,0,0,3.83,3.9,10.47,10.47,0,0,0,5.3,1.42,9.57,9.57,0,0,0,5.22-1.45l.08,0,.08-.05a9.06,9.06,0,0,0,4.08-7.55,11.93,11.93,0,0,0-2-6.37,38.85,38.85,0,0,0-13-12.93c-5.18-3.07-11.54-4.63-18.9-4.63Z"/></g></g></svg>